<mxfile host="app.diagrams.net" modified="2023-09-02T04:01:14.254Z" agent="Mozilla/5.0 (Macintosh; Intel Mac OS X 10_15_7) AppleWebKit/537.36 (KHTML, like Gecko) Chrome/116.0.0.0 Safari/537.36 Edg/116.0.1938.62" etag="6ae7mfBOIAgKSTnbNDFO" version="21.6.9" type="device">
  <diagram name="第 1 页" id="P6M6CRkn5cc2g4rzYMFN">
    <mxGraphModel dx="954" dy="648" grid="1" gridSize="10" guides="1" tooltips="1" connect="1" arrows="1" fold="1" page="1" pageScale="1" pageWidth="827" pageHeight="1169" math="0" shadow="0">
      <root>
        <mxCell id="0" />
        <mxCell id="1" parent="0" />
        <mxCell id="za4ZBzdV7PycntZ2moME-1" style="edgeStyle=orthogonalEdgeStyle;rounded=0;orthogonalLoop=1;jettySize=auto;html=1;strokeWidth=3;" edge="1" parent="1">
          <mxGeometry relative="1" as="geometry">
            <mxPoint x="333" y="239.5" as="sourcePoint" />
            <mxPoint x="483" y="239.5" as="targetPoint" />
            <Array as="points">
              <mxPoint x="443" y="239.5" />
              <mxPoint x="443" y="239.5" />
            </Array>
          </mxGeometry>
        </mxCell>
        <mxCell id="za4ZBzdV7PycntZ2moME-2" value="" style="edgeStyle=orthogonalEdgeStyle;rounded=0;orthogonalLoop=1;jettySize=auto;html=1;strokeWidth=3;strokeColor=#66B2FF;" edge="1" parent="1">
          <mxGeometry relative="1" as="geometry">
            <mxPoint x="254.71000000000004" y="305" as="sourcePoint" />
            <mxPoint x="254.71000000000004" y="355" as="targetPoint" />
          </mxGeometry>
        </mxCell>
        <mxCell id="za4ZBzdV7PycntZ2moME-3" value="RaftBatchSystem" style="shape=mxgraph.flowchart.start_2;whiteSpace=wrap;html=1;fillColor=#E6FFCC;strokeColor=#000000;strokeWidth=2" diagramCategory="Flowchart" diagramName="Start2" vertex="1" parent="1">
          <mxGeometry x="190" y="180" width="130" height="120" as="geometry" />
        </mxCell>
        <mxCell id="za4ZBzdV7PycntZ2moME-4" value="ApplyBatchSystem" style="shape=mxgraph.flowchart.start_2;whiteSpace=wrap;html=1;fillColor=#E6FFCC;strokeColor=#000000;strokeWidth=2" diagramCategory="Flowchart" diagramName="Start2" vertex="1" parent="1">
          <mxGeometry x="500" y="180" width="130" height="120" as="geometry" />
        </mxCell>
        <mxCell id="za4ZBzdV7PycntZ2moME-5" value="raft rocksdb" style="shape=cylinder;whiteSpace=wrap;html=1;boundedLbl=1;backgroundOutline=1;strokeColor=#7EA6E0;" diagramCategory="general" diagramName="Cylinder" vertex="1" parent="1">
          <mxGeometry x="225" y="360" width="60" height="80" as="geometry" />
        </mxCell>
        <mxCell id="za4ZBzdV7PycntZ2moME-6" value="kv rocksdb" style="shape=cylinder;whiteSpace=wrap;html=1;boundedLbl=1;backgroundOutline=1;strokeColor=#7EA6E0;" diagramCategory="general" diagramName="Cylinder" vertex="1" parent="1">
          <mxGeometry x="540" y="360" width="60" height="80" as="geometry" />
        </mxCell>
        <mxCell id="za4ZBzdV7PycntZ2moME-7" value="" style="edgeStyle=orthogonalEdgeStyle;rounded=0;orthogonalLoop=1;jettySize=auto;html=1;strokeWidth=3;strokeColor=#66B2FF;" edge="1" parent="1">
          <mxGeometry relative="1" as="geometry">
            <mxPoint x="569.72" y="305.9999999999999" as="sourcePoint" />
            <mxPoint x="569.72" y="356" as="targetPoint" />
          </mxGeometry>
        </mxCell>
        <mxCell id="za4ZBzdV7PycntZ2moME-8" value="" style="edgeStyle=orthogonalEdgeStyle;rounded=0;orthogonalLoop=1;jettySize=auto;html=1;strokeWidth=3;strokeColor=#66B2FF;" edge="1" parent="1">
          <mxGeometry relative="1" as="geometry">
            <mxPoint x="254.51999999999998" y="120" as="sourcePoint" />
            <mxPoint x="254.51999999999998" y="170" as="targetPoint" />
          </mxGeometry>
        </mxCell>
        <mxCell id="za4ZBzdV7PycntZ2moME-9" value="proposal" style="text;html=1;strokeColor=none;fillColor=#FFE6CC;align=center;verticalAlign=middle;whiteSpace=wrap;rounded=0;" diagramCategory="general" diagramName="text" vertex="1" parent="1">
          <mxGeometry x="264" y="130" width="50" height="20" as="geometry" />
        </mxCell>
        <mxCell id="za4ZBzdV7PycntZ2moME-10" value="Append Log" style="text;html=1;strokeColor=none;fillColor=none;align=center;verticalAlign=middle;whiteSpace=wrap;rounded=0;" diagramCategory="general" diagramName="text" vertex="1" parent="1">
          <mxGeometry x="260" y="312" width="98" height="20" as="geometry" />
        </mxCell>
        <mxCell id="za4ZBzdV7PycntZ2moME-11" value="Apply Log" style="text;html=1;strokeColor=none;fillColor=none;align=center;verticalAlign=middle;whiteSpace=wrap;rounded=0;" diagramCategory="general" diagramName="text" vertex="1" parent="1">
          <mxGeometry x="580" y="312" width="98" height="20" as="geometry" />
        </mxCell>
        <mxCell id="za4ZBzdV7PycntZ2moME-12" style="edgeStyle=orthogonalEdgeStyle;rounded=0;orthogonalLoop=1;jettySize=auto;html=1;strokeWidth=3;startArrow=block;startFill=1;endArrow=none;endFill=0;" edge="1" parent="1">
          <mxGeometry relative="1" as="geometry">
            <mxPoint x="90" y="240" as="sourcePoint" />
            <mxPoint x="180" y="239.51999999999998" as="targetPoint" />
            <Array as="points">
              <mxPoint x="140" y="239.52" />
              <mxPoint x="140" y="239.52" />
            </Array>
          </mxGeometry>
        </mxCell>
        <mxCell id="za4ZBzdV7PycntZ2moME-13" value="replicate" style="text;html=1;strokeColor=none;fillColor=none;align=center;verticalAlign=middle;whiteSpace=wrap;rounded=0;" diagramCategory="general" diagramName="text" vertex="1" parent="1">
          <mxGeometry x="101" y="210" width="80" height="20" as="geometry" />
        </mxCell>
        <mxCell id="za4ZBzdV7PycntZ2moME-14" value="" style="rounded=1;whiteSpace=wrap;html=1;fillColor=none;dashed=1;" vertex="1" parent="1">
          <mxGeometry x="60" y="110" width="680" height="360" as="geometry" />
        </mxCell>
      </root>
    </mxGraphModel>
  </diagram>
</mxfile>
